<svg xmlns="http://www.w3.org/2000/svg" viewBox="0 0 169.17 152.67"><title>Asset 6</title><g id="Layer_2" data-name="Layer 2"><g id="Layer_1-2" data-name="Layer 1"><path fill="#f80752" d="M105.09,91.8c-2.23-5-5.25-9.28-10.72-11.45.86,1.36,1.72,2.7,2.56,4.06,3.3,5.34,6.06,10.89,7.19,17.16A26.15,26.15,0,0,1,101,120.09c-2.72,4.56-5.88,8.88-9,13.22-3.93,5.56-6.32,11.58-5.9,18.51a4.2,4.2,0,0,1,0,.79s-.09,0-.13.06c-1.12-1.85-2.18-3.73-3.37-5.53C79.77,143,75.89,140,71.8,137.2c-2.06-1.39-2.11-1.38-1.43-3.77.93-3.26,3-5.82,5.16-8.38,2.64-3.21,5.33-6.36,7.06-10.24,3.21-7.2,2.91-14.4.46-21.7a24.8,24.8,0,0,0-4-7.7,77.25,77.25,0,0,1-5.73,5.84,41,41,0,0,1-20.83,9.46c-3,.42-6,.69-9.07,1-3.38.3-5.34,1.81-5.87,4.64a5.2,5.2,0,0,0,3,5.31c1.95.64,3.83-.29,4.95-2.45,1.23-2.39,2.62-2.74,4.91-1.25a6,6,0,0,1,2.21,6.69c-1.2,4.39-5.07,6.77-9.75,6.53-8.38-.44-12.76-9.17-12.07-15.57a15.18,15.18,0,0,1,4-9.37c1-1,1.78-1.59,3.51-.8,9.14,4.19,19.5,2.24,27.12-4.51A53,53,0,0,0,69.33,87a52.82,52.82,0,0,1-16.69,6.15C42.52,94.81,33.77,89.88,30,80.24c-1.53-3.93-2.67-8-4.24-11.91a9.37,9.37,0,0,0-9.92-5.77,5.63,5.63,0,0,0-5,4.49,4.46,4.46,0,0,0,2.24,4.42,3.44,3.44,0,0,0,4.44-1.38c.37-.52.66-1.09,1-1.7,2,.22,3.86.9,4.56,3A6.84,6.84,0,0,1,21.47,79a9.21,9.21,0,0,1-8,2.43c-5.81-.79-10.17-3.75-12.3-9.23C-1,66.39-.07,60.92,3.66,55.86c6.4-8.69,21.66-9.16,29.31,1.07,2.55,3.41,4.69,7.14,7.24,10.55A35.67,35.67,0,0,0,46,73.83a11,11,0,0,0,13.15.65,7.58,7.58,0,0,0,3.37-4.86c-5.29-3.17-7.23-8.38-8-13.94C52.7,43.11,57.23,33,67.54,25.71c4-2.83,8.7-4,13.54-4.46,8.19-.71,15.51,1.38,21.79,6.87,5.64,4.92,8.56,11.19,9.53,18.48a27.41,27.41,0,0,1-1.68,14.45c-1.55,3.67-3.43,7.14-7.66,8.41,3.27,7.53,13.16,10.59,20.87,3.24,2.86-2.72,5-6.24,7.28-9.5,3-4.25,6.49-7.75,11.79-9,9.25-2.18,18.57,2.19,23.36,11.06,2.49,4.61,3.63,9.45,2.14,14.64A8.62,8.62,0,0,1,158,86.25a6,6,0,0,1-4.72-4.71,2.61,2.61,0,0,1,.67-2.18c.29-.27,1.38.22,2.05.52.41.18.68.66,1,1a2.33,2.33,0,0,0,3.42-.09,6.55,6.55,0,0,0,1.89-6c-1.09-5.66-8.26-10.45-13.88-9.31-3.45.7-5.43,3.19-7.17,6-2,3.25-3.85,6.68-6.15,9.73-5.31,7-12.68,10.39-21.37,10.93a62,62,0,0,1-6.23-.24C106.79,91.78,106,91.8,105.09,91.8ZM76.82,65.55a15.59,15.59,0,0,0-3-9.38c-1.54-1.93-4.24-1.4-4.73,1a15.34,15.34,0,0,0,2.42,11.71c.51.77,2.12,1.14,3.21,1.12,1.33,0,1.82-1.27,2-2.53C76.7,66.87,76.75,66.23,76.82,65.55Zm14.71.85c0,1.5,0,3,1.78,3.52s2.87-.41,3.66-2.52a51.77,51.77,0,0,0,1.71-5.15,25.17,25.17,0,0,0,.88-5c.11-1.87-1.09-2.47-2.72-1.47a8.06,8.06,0,0,0-1.69,1.45A15.35,15.35,0,0,0,91.53,66.4Z"/><path fill="#f80752" d="M98.3,130.42c6.09-7,10.16-14.93,10.34-24.67a13.43,13.43,0,0,0,10.71,2.74,10.42,10.42,0,0,0,6.57-3.93,20.2,20.2,0,0,0,4-9,22.08,22.08,0,0,0,0-3.76c5-3.47,8.81-8.44,12.11-13.89.82-1.37,1.53-2.81,2.31-4.21,2.7-4.89,6.43-4.66,10.42-2.52a6.08,6.08,0,0,1,3,4.32c-7.26-2.48-11.51,2.09-15.94,6.62,5.22,6.68,8.58,13.76,5.33,22.24-2.05,5.36-6.73,8.15-11.52,10.76,3.54-3.72,4.93-8.31,5.63-13.2a21,21,0,0,0-3-14.11l-2.6,2.92a13.09,13.09,0,0,1,2.1,10.49c-2,11-9.17,17.44-19.33,20.95a47.53,47.53,0,0,1-13.47,2.57,8.33,8.33,0,0,0-1,.18l1,2.79-6.47,3Z"/><path fill="#f80752" d="M141.49,48.6c-.92-4.69-1.66-9.41-2.8-14-.9-3.63-3.48-5.84-7.08-7a36.82,36.82,0,0,0-12.75-1.82c-1.06,0-2.12,0-3.21,0,4.63-.64,9.22-1.21,13.77-1.94a20.24,20.24,0,0,0,4.9-1.41c3.09-1.35,4.36-4.14,5-7.21.76-3.92,1.31-7.88,2-11.83.1-.62.22-1.24.39-2.16.4,4.49.67,8.66,1.22,12.8a19.46,19.46,0,0,0,1.66,5.27c1.41,3.14,4.3,4.11,7.41,4.55,3.53.51,7.07.94,10.6,1.41a.75.75,0,0,1,.57.35c-2,.17-3.94.19-5.86.53-2.88.5-5.73,1.15-8.56,1.88a7.23,7.23,0,0,0-4.5,3.82c-1.71,3.14-1.93,6.61-2.31,10.05-.25,2.27-.46,4.54-.69,6.81Z"/><path fill="#f80752" d="M25.92,0c.36,3.06.82,6.11,1.07,9.18.47,5.62,3.68,9.42,9.2,10.46,3.9.74,7.83,1.27,10.12,1.64-2.64.43-6.89,1.07-11.12,1.82-3.65.65-5.19,2.83-6.12,6.36-1,3.85-2.58,7.81-3.34,11.72a2.2,2.2,0,0,1-.32,1C25.2,40,25,37.7,24.76,35.45a37.08,37.08,0,0,0-1-5.67A9.32,9.32,0,0,0,17.1,23.1c-4.2-1.28-8.5-1.4-12.82-1.59a22.61,22.61,0,0,0-2.61,0c4.17-.55,8.36-1,12.49-1.68,8.07-1.4,9.47-3.53,10.61-11.64.38-2.73.59-5.49.87-8.24Z"/><path fill="#f80752" d="M30.36,89.32l3.91,4.23c-7.89,5-7.9,12.59-6.16,21-2.32-1.95-4.9-3.67-6.88-5.92-3.49-3.94-2.8-9.58,1.26-14.25A16.66,16.66,0,0,1,30.36,89.32Z"/><path fill="#f80752" d="M67.38,100.41A70.19,70.19,0,0,0,73.81,95a68.82,68.82,0,0,0,5-6.69c3.87,5.8,4.35,12.38,4.7,19.35C77.77,105.3,72.25,103.58,67.38,100.41Z"/><path fill="#f80752" d="M127.71,93.42a9.8,9.8,0,0,1-5.63,9.76,20.78,20.78,0,0,1-12.38,1.35,1.69,1.69,0,0,1-1.09-1c-.46-2.25-.78-4.51-1.2-7.06C114.35,96.88,121.15,96.37,127.71,93.42Z"/></g></g></svg>